<?xml version="1.0" standalone="no"?>
<!DOCTYPE svg PUBLIC "-//W3C//DTD SVG 20010904//EN"
 "http://www.w3.org/TR/2001/REC-SVG-20010904/DTD/svg10.dtd">
<svg version="1.0" xmlns="http://www.w3.org/2000/svg"
 width="448.000000pt" height="382.000000pt" viewBox="0 0 448.000000 382.000000"
 preserveAspectRatio="xMidYMid meet">

<g transform="translate(0.000000,382.000000) scale(0.100000,-0.100000)"
fill="#444444" stroke="none">
<path d="M0 1910 l0 -1910 2240 0 2240 0 0 1910 0 1910 -2240 0 -2240 0 0
-1910z m2414 496 c105 -182 165 -295 161 -305 -3 -9 -54 -100 -113 -203 l-107
-188 -232 0 -232 0 -48 -82 c-27 -46 -105 -181 -173 -300 l-125 -218 -118 0
-119 0 20 33 c11 17 71 122 135 232 63 110 205 355 314 545 110 190 257 445
328 568 71 122 132 219 135 215 4 -4 82 -138 174 -297z m501 -868 c115 -200
218 -378 228 -396 l19 -33 -118 3 -118 3 -56 97 -55 97 -346 1 -347 0 -57
-100 -57 -100 -114 0 c-63 0 -114 3 -114 6 0 4 50 94 111 200 l112 194 343 0
c189 0 344 3 344 6 0 4 -22 46 -50 94 -27 48 -50 93 -50 100 0 16 100 190 109
190 4 0 101 -163 216 -362z"/>
<path d="M2192 2233 c-67 -116 -159 -277 -171 -300 l-12 -23 113 0 113 0 58
100 58 100 -56 95 c-31 52 -58 95 -60 95 -2 0 -22 -30 -43 -67z"/>
</g>
</svg>
